<svg width="3270" height="1057" xmlns="http://www.w3.org/2000/svg" xmlns:xlink="http://www.w3.org/1999/xlink" xml:space="preserve" overflow="hidden"><defs><linearGradient x1="1091" y1="892.5" x2="1091" y2="1086.5" gradientUnits="userSpaceOnUse" spreadMethod="reflect" id="fill0"><stop offset="0" stop-color="#9CCFF5"/><stop offset="0.5" stop-color="#8FC4EB"/><stop offset="1" stop-color="#79BEED"/></linearGradient><linearGradient x1="2811.5" y1="897.5" x2="2811.5" y2="1091.5" gradientUnits="userSpaceOnUse" spreadMethod="reflect" id="fill1"><stop offset="0" stop-color="#9CCFF5"/><stop offset="0.5" stop-color="#8FC4EB"/><stop offset="1" stop-color="#79BEED"/></linearGradient><linearGradient x1="1879.5" y1="894.5" x2="1879.5" y2="1088.5" gradientUnits="userSpaceOnUse" spreadMethod="reflect" id="fill2"><stop offset="0" stop-color="#9CCFF5"/><stop offset="0.5" stop-color="#8FC4EB"/><stop offset="1" stop-color="#79BEED"/></linearGradient></defs><g transform="translate(-495 -742)"><text font-family="Arial,Arial_MSFontService,sans-serif" font-weight="400" font-size="64" transform="matrix(1 0 0 1 609.465 1437)">Unmodified </text><text font-family="Arial,Arial_MSFontService,sans-serif" font-weight="400" font-size="64" transform="matrix(1 0 0 1 609.465 1514)">repository</text><text font-family="Arial,Arial_MSFontService,sans-serif" font-weight="400" font-size="64" transform="matrix(1 0 0 1 1304.88 1434)">Modified </text><text font-family="Arial,Arial_MSFontService,sans-serif" font-weight="400" font-size="64" transform="matrix(1 0 0 1 1304.88 1511)">repository</text><text font-family="Arial,Arial_MSFontService,sans-serif" font-weight="400" font-size="64" transform="matrix(1 0 0 1 1949.01 1437)">Git </text><text fill="#215F9A" font-family="Arial,Arial_MSFontService,sans-serif" font-weight="700" font-size="64" transform="matrix(1 0 0 1 2048.7 1437)">saves your modifications</text><text font-family="Arial,Arial_MSFontService,sans-serif" font-weight="400" font-size="64" transform="matrix(1 0 0 1 1949.01 1514)">to the temporary staged area </text><text font-family="Arial,Arial_MSFontService,sans-serif" font-weight="400" font-size="64" transform="matrix(1 0 0 1 1949.01 1591)">and creates a </text><text fill="#215F9A" font-family="Arial,Arial_MSFontService,sans-serif" font-weight="700" font-size="64" transform="matrix(1 0 0 1 2354.06 1591)">unique index </text><text font-family="Arial,Arial_MSFontService,sans-serif" font-weight="400" font-size="64" transform="matrix(1 0 0 1 1949.01 1668)">for your modifications based </text><text font-family="Arial,Arial_MSFontService,sans-serif" font-weight="400" font-size="64" transform="matrix(1 0 0 1 1949.01 1745)">on your last commit</text><path d="M1053.5 1049 1072.25 1049 1072.25 892.5 1109.75 892.5 1109.75 1049 1128.5 1049 1091 1086.5Z" stroke="#0F9ED5" stroke-width="4.58333" stroke-miterlimit="8" fill="url(#fill0)" fill-rule="evenodd"/><text font-family="Arial,Arial_MSFontService,sans-serif" font-weight="400" font-size="64" transform="matrix(1 0 0 1 880.164 827)">You code here.</text><path d="M495.5 1181.06 502.375 1181.06 502.375 1187.94 495.5 1187.94ZM509.25 1181.06 516.125 1181.06 516.125 1187.94 509.25 1187.94ZM523 1181.06 529.875 1181.06 529.875 1187.94 523 1187.94ZM536.75 1181.06 543.625 1181.06 543.625 1187.94 536.75 1187.94ZM550.5 1181.06 557.375 1181.06 557.375 1187.94 550.5 1187.94ZM564.25 1181.06 571.125 1181.06 571.125 1187.94 564.25 1187.94ZM578 1181.06 584.875 1181.06 584.875 1187.94 578 1187.94ZM591.75 1181.06 598.625 1181.06 598.625 1187.94 591.75 1187.94ZM605.5 1181.06 612.375 1181.06 612.375 1187.94 605.5 1187.94ZM619.25 1181.06 626.125 1181.06 626.125 1187.94 619.25 1187.94ZM633 1181.06 639.875 1181.06 639.875 1187.94 633 1187.94ZM646.75 1181.06 653.625 1181.06 653.625 1187.94 646.75 1187.94ZM660.5 1181.06 667.375 1181.06 667.375 1187.94 660.5 1187.94ZM674.25 1181.06 681.125 1181.06 681.125 1187.94 674.25 1187.94ZM688 1181.06 694.875 1181.06 694.875 1187.94 688 1187.94ZM701.75 1181.06 708.625 1181.06 708.625 1187.94 701.75 1187.94ZM715.5 1181.06 722.375 1181.06 722.375 1187.94 715.5 1187.94ZM729.25 1181.06 736.125 1181.06 736.125 1187.94 729.25 1187.94ZM743 1181.06 749.875 1181.06 749.875 1187.94 743 1187.94ZM756.75 1181.06 763.625 1181.06 763.625 1187.94 756.75 1187.94ZM770.5 1181.06 777.375 1181.06 777.375 1187.94 770.5 1187.94ZM784.25 1181.06 791.125 1181.06 791.125 1187.94 784.25 1187.94ZM798 1181.06 804.875 1181.06 804.875 1187.94 798 1187.94ZM811.75 1181.06 818.625 1181.06 818.625 1187.94 811.75 1187.94ZM825.5 1181.06 832.375 1181.06 832.375 1187.94 825.5 1187.94ZM839.25 1181.06 846.125 1181.06 846.125 1187.94 839.25 1187.94ZM853 1181.06 859.875 1181.06 859.875 1187.94 853 1187.94ZM866.75 1181.06 873.625 1181.06 873.625 1187.94 866.75 1187.94ZM880.5 1181.06 887.375 1181.06 887.375 1187.94 880.5 1187.94ZM894.25 1181.06 901.125 1181.06 901.125 1187.94 894.25 1187.94ZM908 1181.06 914.875 1181.06 914.875 1187.94 908 1187.94ZM921.75 1181.06 928.625 1181.06 928.625 1187.94 921.75 1187.94ZM935.5 1181.06 942.375 1181.06 942.375 1187.94 935.5 1187.94ZM949.25 1181.06 956.125 1181.06 956.125 1187.94 949.25 1187.94ZM963 1181.06 969.875 1181.06 969.875 1187.94 963 1187.94ZM976.75 1181.06 983.625 1181.06 983.625 1187.94 976.75 1187.94ZM990.5 1181.06 997.375 1181.06 997.375 1187.94 990.5 1187.94ZM1004.25 1181.06 1011.12 1181.06 1011.12 1187.94 1004.25 1187.94ZM1018 1181.06 1024.87 1181.06 1024.87 1187.94 1018 1187.94ZM1031.75 1181.06 1038.62 1181.06 1038.62 1187.94 1031.75 1187.94ZM1045.5 1181.06 1052.37 1181.06 1052.37 1187.94 1045.5 1187.94ZM1059.25 1181.06 1066.12 1181.06 1066.12 1187.94 1059.25 1187.94ZM1073 1181.06 1079.87 1181.06 1079.87 1187.94 1073 1187.94ZM1086.75 1181.06 1093.62 1181.06 1093.62 1187.94 1086.75 1187.94ZM1100.5 1181.06 1107.37 1181.06 1107.37 1187.94 1100.5 1187.94ZM1114.25 1181.06 1121.12 1181.06 1121.12 1187.94 1114.25 1187.94ZM1128 1181.06 1134.87 1181.06 1134.87 1187.94 1128 1187.94ZM1141.75 1181.06 1148.62 1181.06 1148.62 1187.94 1141.75 1187.94ZM1155.5 1181.06 1162.37 1181.06 1162.37 1187.94 1155.5 1187.94ZM1169.25 1181.06 1176.12 1181.06 1176.12 1187.94 1169.25 1187.94ZM1183 1181.06 1189.87 1181.06 1189.87 1187.94 1183 1187.94ZM1196.75 1181.06 1203.62 1181.06 1203.62 1187.94 1196.75 1187.94ZM1210.5 1181.06 1217.37 1181.06 1217.37 1187.94 1210.5 1187.94ZM1224.25 1181.06 1231.12 1181.06 1231.12 1187.94 1224.25 1187.94ZM1238 1181.06 1244.87 1181.06 1244.87 1187.94 1238 1187.94ZM1251.75 1181.06 1258.62 1181.06 1258.62 1187.94 1251.75 1187.94ZM1265.5 1181.06 1272.37 1181.06 1272.37 1187.94 1265.5 1187.94ZM1279.25 1181.06 1286.12 1181.06 1286.12 1187.94 1279.25 1187.94ZM1293 1181.06 1299.87 1181.06 1299.87 1187.94 1293 1187.94ZM1306.75 1181.06 1313.62 1181.06 1313.62 1187.94 1306.75 1187.94ZM1320.5 1181.06 1327.37 1181.06 1327.37 1187.94 1320.5 1187.94ZM1334.25 1181.06 1341.12 1181.06 1341.12 1187.94 1334.25 1187.94ZM1348 1181.06 1354.87 1181.06 1354.87 1187.94 1348 1187.94ZM1361.75 1181.06 1368.62 1181.06 1368.62 1187.94 1361.75 1187.94ZM1375.5 1181.06 1382.37 1181.06 1382.37 1187.94 1375.5 1187.94ZM1389.25 1181.06 1396.12 1181.06 1396.12 1187.94 1389.25 1187.94ZM1403 1181.06 1409.87 1181.06 1409.87 1187.94 1403 1187.94ZM1416.75 1181.06 1423.62 1181.06 1423.62 1187.94 1416.75 1187.94ZM1430.5 1181.06 1437.37 1181.06 1437.37 1187.94 1430.5 1187.94ZM1444.25 1181.06 1451.12 1181.06 1451.12 1187.94 1444.25 1187.94ZM1458 1181.06 1464.87 1181.06 1464.87 1187.94 1458 1187.94ZM1471.75 1181.06 1478.62 1181.06 1478.62 1187.94 1471.75 1187.94ZM1485.5 1181.06 1492.37 1181.06 1492.37 1187.94 1485.5 1187.94ZM1499.25 1181.06 1506.12 1181.06 1506.12 1187.94 1499.25 1187.94ZM1513 1181.06 1519.87 1181.06 1519.87 1187.94 1513 1187.94ZM1526.75 1181.06 1533.62 1181.06 1533.62 1187.94 1526.75 1187.94ZM1540.5 1181.06 1547.37 1181.06 1547.37 1187.94 1540.5 1187.94ZM1554.25 1181.06 1561.12 1181.06 1561.12 1187.94 1554.25 1187.94ZM1568 1181.06 1574.87 1181.06 1574.87 1187.94 1568 1187.94ZM1581.75 1181.06 1588.62 1181.06 1588.62 1187.94 1581.75 1187.94ZM1595.5 1181.06 1602.37 1181.06 1602.37 1187.94 1595.5 1187.94ZM1609.25 1181.06 1616.12 1181.06 1616.12 1187.94 1609.25 1187.94ZM1623 1181.06 1629.87 1181.06 1629.87 1187.94 1623 1187.94ZM1636.75 1181.06 1643.62 1181.06 1643.62 1187.94 1636.75 1187.94ZM1650.5 1181.06 1657.37 1181.06 1657.37 1187.94 1650.5 1187.94ZM1664.25 1181.06 1671.12 1181.06 1671.12 1187.94 1664.25 1187.94ZM1678 1181.06 1684.87 1181.06 1684.87 1187.94 1678 1187.94ZM1691.75 1181.06 1698.62 1181.06 1698.62 1187.94 1691.75 1187.94ZM1705.5 1181.06 1712.37 1181.06 1712.37 1187.94 1705.5 1187.94ZM1719.25 1181.06 1726.12 1181.06 1726.12 1187.94 1719.25 1187.94ZM1733 1181.06 1739.87 1181.06 1739.87 1187.94 1733 1187.94ZM1746.75 1181.06 1753.62 1181.06 1753.62 1187.94 1746.75 1187.94ZM1760.5 1181.06 1767.37 1181.06 1767.37 1187.94 1760.5 1187.94ZM1774.25 1181.06 1781.12 1181.06 1781.12 1187.94 1774.25 1187.94ZM1788 1181.06 1794.87 1181.06 1794.87 1187.94 1788 1187.94ZM1801.75 1181.06 1808.62 1181.06 1808.62 1187.94 1801.75 1187.94ZM1815.5 1181.06 1822.37 1181.06 1822.37 1187.94 1815.5 1187.94ZM1829.25 1181.06 1836.12 1181.06 1836.12 1187.94 1829.25 1187.94ZM1843 1181.06 1849.87 1181.06 1849.87 1187.94 1843 1187.94ZM1856.75 1181.06 1863.62 1181.06 1863.62 1187.94 1856.75 1187.94ZM1870.5 1181.06 1877.37 1181.06 1877.37 1187.94 1870.5 1187.94ZM1884.25 1181.06 1891.12 1181.06 1891.12 1187.94 1884.25 1187.94ZM1898 1181.06 1904.87 1181.06 1904.87 1187.94 1898 1187.94ZM1911.75 1181.06 1918.62 1181.06 1918.62 1187.94 1911.75 1187.94ZM1925.5 1181.06 1932.37 1181.06 1932.37 1187.94 1925.5 1187.94ZM1939.25 1181.06 1946.12 1181.06 1946.12 1187.94 1939.25 1187.94ZM1953 1181.06 1959.87 1181.06 1959.87 1187.94 1953 1187.94ZM1966.75 1181.06 1973.62 1181.06 1973.62 1187.94 1966.75 1187.94ZM1980.5 1181.06 1987.37 1181.06 1987.37 1187.94 1980.5 1187.94ZM1994.25 1181.06 2001.12 1181.06 2001.12 1187.94 1994.25 1187.94ZM2008 1181.06 2014.87 1181.06 2014.87 1187.94 2008 1187.94ZM2021.75 1181.06 2028.62 1181.06 2028.62 1187.94 2021.75 1187.94ZM2035.5 1181.06 2042.37 1181.06 2042.37 1187.94 2035.5 1187.94ZM2049.25 1181.06 2056.12 1181.06 2056.12 1187.94 2049.25 1187.94ZM2063 1181.06 2069.87 1181.06 2069.87 1187.94 2063 1187.94ZM2076.75 1181.06 2083.62 1181.06 2083.62 1187.94 2076.75 1187.94ZM2090.5 1181.06 2097.37 1181.06 2097.37 1187.94 2090.5 1187.94ZM2104.25 1181.06 2111.12 1181.06 2111.12 1187.94 2104.25 1187.94ZM2118 1181.06 2124.87 1181.06 2124.87 1187.94 2118 1187.94ZM2131.75 1181.06 2138.62 1181.06 2138.62 1187.94 2131.75 1187.94ZM2145.5 1181.06 2152.37 1181.06 2152.37 1187.94 2145.5 1187.94ZM2159.25 1181.06 2166.12 1181.06 2166.12 1187.94 2159.25 1187.94ZM2173 1181.06 2179.87 1181.06 2179.87 1187.94 2173 1187.94ZM2186.75 1181.06 2193.62 1181.06 2193.62 1187.94 2186.75 1187.94ZM2200.5 1181.06 2207.37 1181.06 2207.37 1187.94 2200.5 1187.94ZM2214.25 1181.06 2221.12 1181.06 2221.12 1187.94 2214.25 1187.94ZM2228 1181.06 2234.87 1181.06 2234.87 1187.94 2228 1187.94ZM2241.75 1181.06 2248.62 1181.06 2248.62 1187.94 2241.75 1187.94ZM2255.5 1181.06 2262.37 1181.06 2262.37 1187.94 2255.5 1187.94ZM2269.25 1181.06 2276.12 1181.06 2276.12 1187.94 2269.25 1187.94ZM2283 1181.06 2289.87 1181.06 2289.87 1187.94 2283 1187.94ZM2296.75 1181.06 2303.62 1181.06 2303.62 1187.94 2296.75 1187.94ZM2310.5 1181.06 2317.37 1181.06 2317.37 1187.94 2310.5 1187.94ZM2324.25 1181.06 2331.12 1181.06 2331.12 1187.94 2324.25 1187.94ZM2338 1181.06 2344.87 1181.06 2344.87 1187.94 2338 1187.94ZM2351.75 1181.06 2358.62 1181.06 2358.62 1187.94 2351.75 1187.94ZM2365.5 1181.06 2372.37 1181.06 2372.37 1187.94 2365.5 1187.94ZM2379.25 1181.06 2386.12 1181.06 2386.12 1187.94 2379.25 1187.94ZM2393 1181.06 2399.87 1181.06 2399.87 1187.94 2393 1187.94ZM2406.75 1181.06 2413.62 1181.06 2413.62 1187.94 2406.75 1187.94ZM2420.5 1181.06 2427.37 1181.06 2427.37 1187.94 2420.5 1187.94ZM2434.25 1181.06 2441.12 1181.06 2441.12 1187.94 2434.25 1187.94ZM2448 1181.06 2454.87 1181.06 2454.87 1187.94 2448 1187.94ZM2461.75 1181.06 2468.62 1181.06 2468.62 1187.94 2461.75 1187.94ZM2475.5 1181.06 2482.37 1181.06 2482.37 1187.94 2475.5 1187.94ZM2489.25 1181.06 2496.12 1181.06 2496.12 1187.94 2489.25 1187.94ZM2503 1181.06 2509.87 1181.06 2509.87 1187.94 2503 1187.94ZM2516.75 1181.06 2523.62 1181.06 2523.62 1187.94 2516.75 1187.94ZM2530.5 1181.06 2537.37 1181.06 2537.37 1187.94 2530.5 1187.94ZM2544.25 1181.06 2551.12 1181.06 2551.12 1187.94 2544.25 1187.94ZM2558 1181.06 2564.87 1181.06 2564.87 1187.94 2558 1187.94ZM2571.75 1181.06 2578.62 1181.06 2578.62 1187.94 2571.75 1187.94ZM2585.5 1181.06 2592.37 1181.06 2592.37 1187.94 2585.5 1187.94ZM2599.25 1181.06 2606.12 1181.06 2606.12 1187.94 2599.25 1187.94ZM2613 1181.06 2619.87 1181.06 2619.87 1187.94 2613 1187.94ZM2626.75 1181.06 2633.62 1181.06 2633.62 1187.94 2626.75 1187.94ZM2640.5 1181.06 2647.37 1181.06 2647.37 1187.94 2640.5 1187.94ZM2654.25 1181.06 2661.12 1181.06 2661.12 1187.94 2654.25 1187.94ZM2668 1181.06 2674.87 1181.06 2674.87 1187.94 2668 1187.94ZM2681.75 1181.06 2688.62 1181.06 2688.62 1187.94 2681.75 1187.94ZM2695.5 1181.06 2702.37 1181.06 2702.37 1187.94 2695.5 1187.94ZM2709.25 1181.06 2716.12 1181.06 2716.12 1187.94 2709.25 1187.94ZM2723 1181.06 2729.87 1181.06 2729.87 1187.94 2723 1187.94ZM2736.75 1181.06 2743.62 1181.06 2743.62 1187.94 2736.75 1187.94ZM2750.5 1181.06 2757.37 1181.06 2757.37 1187.94 2750.5 1187.94ZM2764.25 1181.06 2771.12 1181.06 2771.12 1187.94 2764.25 1187.94ZM2778 1181.06 2784.87 1181.06 2784.87 1187.94 2778 1187.94ZM2791.75 1181.06 2798.62 1181.06 2798.62 1187.94 2791.75 1187.94ZM2805.5 1181.06 2812.37 1181.06 2812.37 1187.94 2805.5 1187.94ZM2819.25 1181.06 2826.12 1181.06 2826.12 1187.94 2819.25 1187.94ZM2833 1181.06 2839.87 1181.06 2839.87 1187.94 2833 1187.94ZM2846.75 1181.06 2853.62 1181.06 2853.62 1187.94 2846.75 1187.94ZM2860.5 1181.06 2867.37 1181.06 2867.37 1187.94 2860.5 1187.94ZM2874.25 1181.06 2881.12 1181.06 2881.12 1187.94 2874.25 1187.94ZM2888 1181.06 2894.87 1181.06 2894.87 1187.94 2888 1187.94ZM2901.75 1181.06 2908.62 1181.06 2908.62 1187.94 2901.75 1187.94ZM2915.5 1181.06 2922.37 1181.06 2922.37 1187.94 2915.5 1187.94ZM2929.25 1181.06 2936.12 1181.06 2936.12 1187.94 2929.25 1187.94ZM2943 1181.06 2949.87 1181.06 2949.87 1187.94 2943 1187.94ZM2956.75 1181.06 2963.62 1181.06 2963.62 1187.94 2956.75 1187.94ZM2970.5 1181.06 2977.37 1181.06 2977.37 1187.94 2970.5 1187.94ZM2984.25 1181.06 2991.12 1181.06 2991.12 1187.94 2984.25 1187.94ZM2998 1181.06 3004.87 1181.06 3004.87 1187.94 2998 1187.94ZM3011.75 1181.06 3018.62 1181.06 3018.62 1187.94 3011.75 1187.94ZM3025.5 1181.06 3032.37 1181.06 3032.37 1187.94 3025.5 1187.94ZM3039.25 1181.06 3046.12 1181.06 3046.12 1187.94 3039.25 1187.94ZM3053 1181.06 3059.87 1181.06 3059.87 1187.94 3053 1187.94ZM3066.75 1181.06 3073.62 1181.06 3073.62 1187.94 3066.75 1187.94ZM3080.5 1181.06 3087.37 1181.06 3087.37 1187.94 3080.5 1187.94ZM3094.25 1181.06 3101.12 1181.06 3101.12 1187.94 3094.25 1187.94ZM3108 1181.06 3114.87 1181.06 3114.87 1187.94 3108 1187.94ZM3121.75 1181.06 3128.62 1181.06 3128.62 1187.94 3121.75 1187.94ZM3135.5 1181.06 3142.37 1181.06 3142.37 1187.94 3135.5 1187.94ZM3149.25 1181.06 3156.12 1181.06 3156.12 1187.94 3149.25 1187.94ZM3163 1181.06 3169.87 1181.06 3169.87 1187.94 3163 1187.94ZM3176.75 1181.06 3183.62 1181.06 3183.62 1187.94 3176.75 1187.94ZM3190.5 1181.06 3197.37 1181.06 3197.37 1187.94 3190.5 1187.94ZM3204.25 1181.06 3211.12 1181.06 3211.12 1187.94 3204.25 1187.94ZM3218 1181.06 3224.87 1181.06 3224.87 1187.94 3218 1187.94ZM3231.75 1181.06 3238.62 1181.06 3238.62 1187.94 3231.75 1187.94ZM3245.5 1181.06 3252.37 1181.06 3252.37 1187.94 3245.5 1187.94ZM3259.25 1181.06 3266.12 1181.06 3266.12 1187.94 3259.25 1187.94ZM3273 1181.06 3279.87 1181.06 3279.87 1187.94 3273 1187.94ZM3286.75 1181.06 3293.62 1181.06 3293.62 1187.94 3286.75 1187.94ZM3300.5 1181.06 3307.37 1181.06 3307.37 1187.94 3300.5 1187.94ZM3314.25 1181.06 3321.12 1181.06 3321.12 1187.94 3314.25 1187.94ZM3328 1181.06 3334.87 1181.06 3334.87 1187.94 3328 1187.94ZM3341.75 1181.06 3348.62 1181.06 3348.62 1187.94 3341.75 1187.94ZM3355.5 1181.06 3362.37 1181.06 3362.37 1187.94 3355.5 1187.94ZM3369.25 1181.06 3376.12 1181.06 3376.12 1187.94 3369.25 1187.94ZM3383 1181.06 3389.87 1181.06 3389.87 1187.94 3383 1187.94ZM3396.75 1181.06 3403.62 1181.06 3403.62 1187.94 3396.75 1187.94ZM3410.5 1181.06 3417.37 1181.06 3417.37 1187.94 3410.5 1187.94ZM3424.25 1181.06 3431.12 1181.06 3431.12 1187.94 3424.25 1187.94ZM3438 1181.06 3444.87 1181.06 3444.87 1187.94 3438 1187.94ZM3451.75 1181.06 3458.62 1181.06 3458.62 1187.94 3451.75 1187.94ZM3465.5 1181.06 3472.37 1181.06 3472.37 1187.94 3465.5 1187.94ZM3479.25 1181.06 3486.12 1181.06 3486.12 1187.94 3479.25 1187.94ZM3493 1181.06 3499.87 1181.06 3499.87 1187.94 3493 1187.94ZM3506.75 1181.06 3513.62 1181.06 3513.62 1187.94 3506.75 1187.94ZM3520.5 1181.06 3527.37 1181.06 3527.37 1187.94 3520.5 1187.94ZM3534.25 1181.06 3541.12 1181.06 3541.12 1187.94 3534.25 1187.94ZM3542.5 1170.75 3570 1184.5 3542.5 1198.25Z"/><g><g><g><path d="M3349.25 1074.88C3349.25 1090.06 3306.16 1102.38 3253 1102.38 3199.84 1102.38 3156.75 1090.06 3156.75 1074.88 3156.75 1059.69 3199.84 1047.38 3253 1047.38 3306.16 1047.38 3349.25 1059.69 3349.25 1074.88Z"/><path d="M3321.75 1143.62C3317.62 1143.62 3314.88 1140.88 3314.88 1136.75 3314.88 1132.62 3317.62 1129.88 3321.75 1129.88 3325.88 1129.88 3328.62 1132.62 3328.62 1136.75 3328.62 1140.88 3325.88 1143.62 3321.75 1143.62ZM3253 1116.12C3200.06 1116.12 3156.75 1103.75 3156.75 1088.62L3156.75 1143.62C3156.75 1158.75 3200.06 1171.12 3253 1171.12 3305.94 1171.12 3349.25 1158.75 3349.25 1143.62L3349.25 1088.62C3349.25 1103.75 3305.94 1116.12 3253 1116.12Z"/><path d="M3321.75 1212.38C3317.62 1212.38 3314.88 1209.62 3314.88 1205.5 3314.88 1201.38 3317.62 1198.62 3321.75 1198.62 3325.88 1198.62 3328.62 1201.38 3328.62 1205.5 3328.62 1209.62 3325.88 1212.38 3321.75 1212.38ZM3253 1184.88C3200.06 1184.88 3156.75 1172.5 3156.75 1157.38L3156.75 1212.38C3156.75 1227.5 3200.06 1239.88 3253 1239.88 3305.94 1239.88 3349.25 1227.5 3349.25 1212.38L3349.25 1157.38C3349.25 1172.5 3305.94 1184.88 3253 1184.88Z"/><path d="M3321.75 1281.12C3317.62 1281.12 3314.88 1278.38 3314.88 1274.25 3314.88 1270.12 3317.62 1267.38 3321.75 1267.38 3325.88 1267.38 3328.62 1270.12 3328.62 1274.25 3328.62 1278.38 3325.88 1281.12 3321.75 1281.12ZM3253 1253.62C3200.06 1253.62 3156.75 1241.25 3156.75 1226.12L3156.75 1281.12C3156.75 1296.25 3200.06 1308.62 3253 1308.62 3305.94 1308.62 3349.25 1296.25 3349.25 1281.12L3349.25 1226.12C3349.25 1241.25 3305.94 1253.62 3253 1253.62Z"/></g></g></g><g><g><g><path d="M708.344 1154.19 880.563 1154.19 880.563 1137C880.563 1129.44 874.375 1123.25 866.813 1123.25L763.688 1123.25 725.875 1098.16C723.469 1096.78 721.063 1095.75 718.313 1095.75L653.688 1095.75C646.125 1095.75 639.938 1101.94 639.938 1109.5L639.938 1277.94C639.938 1278.63 684.281 1170.34 684.281 1170.34 688.406 1160.72 697.688 1154.19 708.344 1154.19Z"/><path d="M908.063 1181.69C908.063 1174.47 902.906 1168.63 895.688 1167.94L708.344 1167.94C703.188 1167.94 698.719 1171.03 696.656 1175.5L650.25 1288.25 859.938 1288.25 906.688 1187.88C907.719 1185.81 908.063 1183.75 908.063 1181.69L908.063 1181.69Z"/></g></g></g><g><g><g><path d="M1368.34 1154.19 1540.56 1154.19 1540.56 1137C1540.56 1129.44 1534.38 1123.25 1526.81 1123.25L1423.69 1123.25 1385.88 1098.16C1383.47 1096.78 1381.06 1095.75 1378.31 1095.75L1313.69 1095.75C1306.13 1095.75 1299.94 1101.94 1299.94 1109.5L1299.94 1277.94C1299.94 1278.63 1344.28 1170.34 1344.28 1170.34 1348.41 1160.72 1357.69 1154.19 1368.34 1154.19Z"/><path d="M1568.06 1181.69C1568.06 1174.47 1562.91 1168.63 1555.69 1167.94L1368.34 1167.94C1363.19 1167.94 1358.72 1171.03 1356.66 1175.5L1310.25 1288.25 1519.94 1288.25 1566.69 1187.88C1567.72 1185.81 1568.06 1183.75 1568.06 1181.69L1568.06 1181.69Z"/></g></g></g><text font-family="Arial,Arial_MSFontService,sans-serif" font-weight="400" font-size="64" transform="matrix(1 0 0 1 1684.3 833)">git add [files]</text><g><g><g><path d="M2432.25 1077.88C2432.25 1093.06 2389.16 1105.38 2336 1105.38 2282.84 1105.38 2239.75 1093.06 2239.75 1077.88 2239.75 1062.69 2282.84 1050.38 2336 1050.38 2389.16 1050.38 2432.25 1062.69 2432.25 1077.88Z"/><path d="M2404.75 1146.63C2400.63 1146.63 2397.88 1143.88 2397.88 1139.75 2397.88 1135.63 2400.63 1132.88 2404.75 1132.88 2408.88 1132.88 2411.63 1135.63 2411.63 1139.75 2411.63 1143.88 2408.88 1146.63 2404.75 1146.63ZM2336 1119.13C2283.06 1119.13 2239.75 1106.75 2239.75 1091.63L2239.75 1146.63C2239.75 1161.75 2283.06 1174.13 2336 1174.13 2388.94 1174.13 2432.25 1161.75 2432.25 1146.63L2432.25 1091.63C2432.25 1106.75 2388.94 1119.13 2336 1119.13Z"/><path d="M2404.75 1215.38C2400.63 1215.38 2397.88 1212.63 2397.88 1208.5 2397.88 1204.38 2400.63 1201.63 2404.75 1201.63 2408.88 1201.63 2411.63 1204.38 2411.63 1208.5 2411.63 1212.63 2408.88 1215.38 2404.75 1215.38ZM2336 1187.88C2283.06 1187.88 2239.75 1175.5 2239.75 1160.38L2239.75 1215.38C2239.75 1230.5 2283.06 1242.88 2336 1242.88 2388.94 1242.88 2432.25 1230.5 2432.25 1215.38L2432.25 1160.38C2432.25 1175.5 2388.94 1187.88 2336 1187.88Z"/><path d="M2404.75 1284.13C2400.63 1284.13 2397.88 1281.38 2397.88 1277.25 2397.88 1273.13 2400.63 1270.38 2404.75 1270.38 2408.88 1270.38 2411.63 1273.13 2411.63 1277.25 2411.63 1281.38 2408.88 1284.13 2404.75 1284.13ZM2336 1256.63C2283.06 1256.63 2239.75 1244.25 2239.75 1229.13L2239.75 1284.13C2239.75 1299.25 2283.06 1311.63 2336 1311.63 2388.94 1311.63 2432.25 1299.25 2432.25 1284.13L2432.25 1229.13C2432.25 1244.25 2388.94 1256.63 2336 1256.63Z"/></g></g></g><text font-family="Arial,Arial_MSFontService,sans-serif" font-weight="400" font-size="64" transform="matrix(1 0 0 1 2944.02 1437)">Git create a snapshot point </text><text font-family="Arial,Arial_MSFontService,sans-serif" font-weight="400" font-size="64" transform="matrix(1 0 0 1 2944.02 1514)">to last </text><text fill="#215F9A" font-family="Arial,Arial_MSFontService,sans-serif" font-weight="700" font-size="64" transform="matrix(1 0 0 1 3132.51 1514)">unique index</text><text font-family="Arial,Arial_MSFontService,sans-serif" font-weight="400" font-size="64" transform="matrix(1 0 0 1 3526.1 1514)">.</text><path d="M2774.5 1054.5 2793 1054.5 2793 897.5 2830 897.5 2830 1054.5 2848.5 1054.5 2811.5 1091.5Z" stroke="#0F9ED5" stroke-width="4.58333" stroke-miterlimit="8" fill="url(#fill1)" fill-rule="evenodd"/><path d="M1842.5 1051.5 1861 1051.5 1861 894.5 1898 894.5 1898 1051.5 1916.5 1051.5 1879.5 1088.5Z" stroke="#0F9ED5" stroke-width="4.58333" stroke-miterlimit="8" fill="url(#fill2)" fill-rule="evenodd"/><text font-family="Arial,Arial_MSFontService,sans-serif" font-weight="400" font-size="64" transform="matrix(1 0 0 1 2522.83 824)">git commit </text><text font-family="Arial,Arial_MSFontService,sans-serif" font-weight="400" font-size="64" transform="matrix(1 0 0 1 2832.21 824)">–</text><text font-family="Arial,Arial_MSFontService,sans-serif" font-weight="400" font-size="64" transform="matrix(1 0 0 1 2867.73 824)">m “msg”</text></g></svg>