<svg width="3367" height="1421" xmlns="http://www.w3.org/2000/svg" xmlns:xlink="http://www.w3.org/1999/xlink" xml:space="preserve" overflow="hidden"><g transform="translate(-190 -407)"><g><g><g><path d="M870.437 794.25 643.562 794.25C636 794.25 629.812 788.063 629.812 780.5L629.812 615.5C629.812 607.938 636 601.75 643.562 601.75L708.187 601.75C710.937 601.75 713.687 602.438 715.75 604.156L753.562 629.25 870.437 629.25C878 629.25 884.187 635.438 884.187 643L884.187 780.5C884.187 788.063 878 794.25 870.437 794.25Z"/></g></g></g><path d="M1000.5 695.062 1021.13 695.062 1021.13 701.938 1000.5 701.938ZM1028 695.062 1048.63 695.062 1048.63 701.938 1028 701.938ZM1055.5 695.062 1076.13 695.062 1076.13 701.938 1055.5 701.938ZM1083 695.062 1103.63 695.062 1103.63 701.938 1083 701.938ZM1110.5 695.062 1131.13 695.062 1131.13 701.938 1110.5 701.938ZM1138 695.062 1158.63 695.063 1158.63 701.938 1138 701.938ZM1165.5 695.063 1186.13 695.063 1186.13 701.938 1165.5 701.938ZM1193 695.063 1213.63 695.063 1213.63 701.938 1193 701.938ZM1220.5 695.063 1241.13 695.063 1241.13 701.938 1220.5 701.938ZM1248 695.063 1268.63 695.063 1268.63 701.938 1248 701.938ZM1275.5 695.063 1296.13 695.063 1296.13 701.938 1275.5 701.938ZM1303 695.063 1323.63 695.063 1323.63 701.938 1303 701.938ZM1330.5 695.063 1351.13 695.063 1351.13 701.938 1330.5 701.938ZM1358 695.063 1378.63 695.063 1378.63 701.938 1358 701.938ZM1385.5 695.063 1406.13 695.063 1406.13 701.938 1385.5 701.938ZM1413 695.063 1433.63 695.063 1433.63 701.938 1413 701.938ZM1440.5 695.063 1461.13 695.063 1461.13 701.938 1440.5 701.938ZM1468 695.063 1488.63 695.063 1488.63 701.938 1468 701.938ZM1495.5 695.063 1516.13 695.063 1516.13 701.938 1495.5 701.938ZM1523 695.063 1543.63 695.063 1543.63 701.938 1523 701.938ZM1550.5 695.063 1571.13 695.063 1571.13 701.938 1550.5 701.938ZM1578 695.063 1598.63 695.063 1598.63 701.938 1578 701.938ZM1605.5 695.063 1626.13 695.063 1626.13 701.938 1605.5 701.938ZM1633 695.063 1653.63 695.063 1653.63 701.938 1633 701.938ZM1660.5 695.063 1681.13 695.063 1681.13 701.938 1660.5 701.938ZM1688 695.063 1708.63 695.063 1708.63 701.938 1688 701.938ZM1715.5 695.063 1736.13 695.063 1736.13 701.938 1715.5 701.938ZM1743 695.063 1763.63 695.063 1763.63 701.938 1743 701.938ZM1770.5 695.063 1791.13 695.063 1791.13 701.938 1770.5 701.938ZM1798 695.063 1818.63 695.063 1818.63 701.938 1798 701.938ZM1825.5 695.063 1846.13 695.063 1846.13 701.938 1825.5 701.938ZM1853 695.063 1873.63 695.063 1873.63 701.938 1853 701.938ZM1880.5 695.063 1901.13 695.063 1901.13 701.938 1880.5 701.938ZM1908 695.063 1928.63 695.063 1928.63 701.938 1908 701.938ZM1935.5 695.063 1956.13 695.063 1956.13 701.938 1935.5 701.938ZM1963 695.063 1983.63 695.063 1983.63 701.938 1963 701.938ZM1990.5 695.063 2011.13 695.063 2011.13 701.938 1990.5 701.938ZM2018 695.063 2038.63 695.063 2038.63 701.938 2018 701.938ZM2045.5 695.063 2066.13 695.063 2066.13 701.938 2045.5 701.938ZM2073 695.063 2093.63 695.063 2093.63 701.938 2073 701.938ZM2100.5 695.063 2121.13 695.063 2121.13 701.938 2100.5 701.938ZM2128 695.063 2148.63 695.063 2148.63 701.938 2128 701.938ZM2155.5 695.063 2176.13 695.063 2176.13 701.938 2155.5 701.938ZM2183 695.063 2203.63 695.063 2203.63 701.938 2183 701.938ZM2210.5 695.063 2231.13 695.063 2231.13 701.938 2210.5 701.938ZM2238 695.063 2258.63 695.063 2258.63 701.938 2238 701.938ZM2265.5 695.063 2286.13 695.063 2286.13 701.938 2265.5 701.938ZM2293 695.063 2313.63 695.063 2313.63 701.938 2293 701.938ZM2320.5 695.063 2341.13 695.063 2341.13 701.938 2320.5 701.938ZM2348 695.063 2368.63 695.063 2368.63 701.938 2348 701.938ZM2375.5 695.063 2396.13 695.063 2396.13 701.938 2375.5 701.938ZM2403 695.063 2423.63 695.063 2423.63 701.938 2403 701.938ZM2430.5 695.063 2451.13 695.063 2451.13 701.938 2430.5 701.938ZM2458 695.063 2478.63 695.063 2478.63 701.938 2458 701.938ZM2485.5 695.063 2506.13 695.063 2506.13 701.938 2485.5 701.938ZM2513 695.063 2533.63 695.063 2533.63 701.938 2513 701.938ZM2540.5 695.063 2561.13 695.063 2561.13 701.938 2540.5 701.938ZM2568 695.063 2588.63 695.063 2588.63 701.938 2568 701.938ZM2595.5 695.063 2616.13 695.063 2616.13 701.938 2595.5 701.938ZM2623 695.063 2643.63 695.063 2643.63 701.938 2623 701.938ZM2650.5 695.063 2671.13 695.063 2671.13 701.938 2650.5 701.938ZM2678 695.063 2698.63 695.063 2698.63 701.938 2678 701.938ZM2705.5 695.063 2726.13 695.063 2726.13 701.938 2705.5 701.938ZM2733 695.063 2753.63 695.063 2753.63 701.938 2733 701.938ZM2760.5 695.063 2781.13 695.063 2781.13 701.938 2760.5 701.938ZM2788 695.063 2808.63 695.063 2808.63 701.938 2788 701.938ZM2815.5 695.063 2836.13 695.063 2836.13 701.938 2815.5 701.938ZM2836.33 684.75 2863.83 698.5 2836.33 712.25Z" fill="#156082"/><text font-family="Arial,Arial_MSFontService,sans-serif" font-weight="400" font-size="83" transform="matrix(1 0 0 1 541.333 512)">Init version</text><g><g><g><path d="M3220.44 794.25 2993.56 794.25C2986 794.25 2979.81 788.063 2979.81 780.5L2979.81 615.5C2979.81 607.938 2986 601.75 2993.56 601.75L3058.19 601.75C3060.94 601.75 3063.69 602.438 3065.75 604.156L3103.56 629.25 3220.44 629.25C3228 629.25 3234.19 635.438 3234.19 643L3234.19 780.5C3234.19 788.063 3228 794.25 3220.44 794.25Z"/></g></g></g><text font-family="Arial,Arial_MSFontService,sans-serif" font-weight="400" font-size="83" transform="matrix(1 0 0 1 2873 963)">Date: 17</text><text font-family="Arial,Arial_MSFontService,sans-serif" font-weight="400" font-size="55" transform="matrix(1 0 0 1 3184.67 938)">th</text><text fill="#C00000" font-family="Arial,Arial_MSFontService,sans-serif" font-weight="400" font-size="83" transform="matrix(1 0 0 1 3253.42 963)">May</text><text font-family="Arial,Arial_MSFontService,sans-serif" font-weight="400" font-size="83" transform="matrix(1 0 0 1 1435.96 836)">Several version iterations...</text><text font-family="Arial,Arial_MSFontService,sans-serif" font-weight="400" font-size="83" transform="matrix(1 0 0 1 2873 512)">Latest version</text><path d="M0-3.4375 549.218-3.4375 549.218 0.000721785 545.781-3.43678 1068.65-3.43678 1068.65 3.43822 542.343 3.43822 542.343 0 545.781 3.4375 0 3.4375ZM1064.06-13.7493 1091.56 0.000721785 1064.06 13.7507Z" fill="#E97132" transform="matrix(-1 1.22465e-16 1.22465e-16 1 2864.06 604.5)"/><path d="M0 0 3.09249 1314.5" stroke="#156082" stroke-width="6.875" stroke-linecap="square" stroke-miterlimit="8" stroke-dasharray="20.625 6.875" fill="none" fill-rule="evenodd" transform="matrix(-1 0 0 1 1767.59 509.5)"/><g><g><g><path d="M756.225 1183.52C750.763 1183.52 746.335 1179.09 746.335 1173.63 746.335 1168.17 750.763 1163.74 756.225 1163.74 761.688 1163.74 766.116 1168.17 766.116 1173.63 766.116 1179.09 761.688 1183.52 756.225 1183.52ZM756.225 1150.55C743.48 1150.56 733.151 1160.89 733.155 1173.64 733.156 1176.51 733.694 1179.36 734.741 1182.04L745.225 1205.12 754.236 1224.02C754.765 1225.11 756.08 1225.57 757.172 1225.04 757.618 1224.82 757.977 1224.46 758.193 1224.02L767.204 1205.12 777.688 1182.04C782.331 1170.17 776.473 1156.78 764.603 1152.14 761.933 1151.09 759.092 1150.56 756.225 1150.55Z"/><path d="M804.854 1104.4 708.146 1104.4C703.296 1104.41 699.369 1108.34 699.354 1113.19L699.354 1297.81C699.369 1302.66 703.296 1306.59 708.146 1306.6L804.854 1306.6C809.704 1306.59 813.631 1302.66 813.646 1297.81L813.646 1113.19C813.631 1108.34 809.704 1104.41 804.854 1104.4ZM748.807 1113.19 764.193 1113.19C766.014 1113.19 767.49 1114.66 767.49 1116.48 767.49 1118.31 766.014 1119.78 764.193 1119.78L748.807 1119.78C746.987 1119.78 745.51 1118.31 745.51 1116.48 745.51 1114.66 746.987 1113.19 748.807 1113.19ZM804.854 1282.43 708.146 1282.43 708.146 1128.57 804.854 1128.57Z"/><path d="M723.531 1236.27 789.469 1236.27 789.469 1242.86 723.531 1242.86Z"/><path d="M723.531 1251.66 789.469 1251.66 789.469 1258.25 723.531 1258.25Z"/></g></g></g><g><g><g><path d="M3117 1586.29C3064.06 1586.29 3021.21 1629.15 3021.21 1682.08L3021.21 1727.46C3021.21 1731.74 3024.49 1735.02 3028.77 1735.02 3033.06 1735.02 3036.33 1731.74 3036.33 1727.46L3036.33 1724.94 3046.42 1724.94 3046.42 1747.62C3046.42 1753.17 3050.95 1757.71 3056.5 1757.71L3071.63 1757.71C3077.17 1757.71 3081.71 1753.17 3081.71 1747.62L3081.71 1692.17C3081.71 1686.62 3077.17 1682.08 3071.63 1682.08L3056.5 1682.08C3050.95 1682.08 3046.42 1686.62 3046.42 1692.17L3046.42 1714.85 3036.33 1714.85 3036.33 1682.08C3036.33 1637.72 3072.63 1601.42 3117 1601.42 3161.37 1601.42 3197.67 1637.72 3197.67 1682.08L3197.67 1714.85 3187.58 1714.85 3187.58 1692.17C3187.58 1686.62 3183.05 1682.08 3177.5 1682.08L3162.38 1682.08C3156.83 1682.08 3152.29 1686.62 3152.29 1692.17L3152.29 1747.62C3152.29 1753.17 3156.83 1757.71 3162.38 1757.71L3177.5 1757.71C3183.05 1757.71 3187.58 1753.17 3187.58 1747.62L3187.58 1724.94 3197.67 1724.94 3197.67 1727.46C3197.67 1731.74 3200.94 1735.02 3205.23 1735.02 3209.51 1735.02 3212.79 1731.74 3212.79 1727.46L3212.79 1682.08C3212.79 1629.15 3169.94 1586.29 3117 1586.29Z"/></g></g></g><g><g><g><path d="M1802.6 1250.48 1802.6 1228.3C1802.55 1225.73 1801.35 1223.33 1799.33 1221.74 1794.58 1218.11 1789.14 1215.46 1783.35 1213.96 1778.97 1212.62 1774.41 1211.93 1769.83 1211.91 1765.26 1211.99 1760.71 1212.68 1756.31 1213.96 1750.59 1215.63 1745.19 1218.26 1740.34 1221.74 1738.32 1223.32 1737.12 1225.73 1737.06 1228.29L1737.06 1250.48Z"/><path d="M1769.83 1170.14C1759.43 1170.14 1751 1178.57 1751 1188.97 1751 1199.38 1759.43 1207.81 1769.83 1207.81 1780.24 1207.81 1788.67 1199.38 1788.67 1188.97 1788.67 1178.57 1780.24 1170.14 1769.83 1170.14ZM1769.83 1202.86C1765.1 1202.86 1760.77 1200.17 1758.68 1195.92L1780.99 1195.92C1778.9 1200.17 1774.57 1202.86 1769.83 1202.86Z"/><path d="M1727.72 1099.39 1731.28 1095.82 1741.37 1105.91 1737.8 1109.47Z"/><path d="M1755.44 1105.91 1765.53 1095.82 1769.09 1099.39 1759.01 1109.47Z"/><path d="M1745.89 1090.04 1750.93 1090.04 1750.93 1105.17 1745.89 1105.17Z"/><path d="M1815.21 1204.49 1815.21 1274.06 1724.46 1274.06 1724.46 1142.98 1815.21 1142.98 1815.21 1172.39C1815.49 1172.2 1815.76 1171.99 1816.05 1171.82 1818.8 1170.15 1821.96 1169.27 1825.18 1169.27L1825.29 1169.27 1825.29 1125.33C1825.27 1119.77 1820.77 1115.27 1815.21 1115.25L1724.46 1115.25C1718.9 1115.27 1714.39 1119.77 1714.37 1125.33L1714.37 1291.71C1714.39 1297.27 1718.9 1301.77 1724.46 1301.79L1815.21 1301.79C1820.77 1301.77 1825.27 1297.27 1825.29 1291.71L1825.29 1221.12ZM1761.01 1125.33 1778.66 1125.33C1780.74 1125.33 1782.44 1127.03 1782.44 1129.11 1782.44 1131.2 1780.74 1132.9 1778.66 1132.9L1761.01 1132.9C1758.92 1132.9 1757.23 1131.2 1757.23 1129.11 1757.23 1127.03 1758.92 1125.33 1761.01 1125.33ZM1748.41 1125.33C1750.49 1125.33 1752.19 1127.03 1752.19 1129.11 1752.19 1131.2 1750.49 1132.9 1748.41 1132.9 1746.32 1132.9 1744.62 1131.2 1744.62 1129.11 1744.62 1127.03 1746.32 1125.33 1748.41 1125.33Z"/><path d="M1832.85 1226.17 1832.85 1291.71C1832.84 1301.45 1824.95 1309.34 1815.21 1309.35L1813.19 1309.06 1828.32 1319.88C1832.25 1322.69 1837.63 1322.31 1841.13 1318.98L1870.06 1291.46C1873.62 1288.06 1874.22 1282.58 1871.46 1278.5L1861.24 1263.4 1861.24 1263.34 1850.93 1211.11C1850.75 1210.28 1850.47 1209.48 1850.09 1208.72 1849.89 1208.17 1849.64 1207.65 1849.34 1207.15L1833.92 1181.69C1831.04 1176.93 1824.84 1175.4 1820.07 1178.29 1815.31 1181.17 1813.78 1187.37 1816.67 1192.14L1831.43 1216.49 1832.91 1224Z"/></g></g></g><g><g><g><path d="M17.1667 36.4791 17.1667 169.521 188.833 169.521 188.833 36.4791 17.1667 36.4791ZM45.0625 53.6458C45.0625 56.0062 43.1312 57.9375 40.7708 57.9375 38.4104 57.9375 36.4791 56.0062 36.4791 53.6458 36.4791 51.2854 38.4104 49.3541 40.7708 49.3541 43.1312 49.3541 45.0625 51.2854 45.0625 53.6458ZM60.0833 53.6458C60.0833 56.0062 58.1521 57.9375 55.7916 57.9375 53.4312 57.9375 51.5 56.0062 51.5 53.6458 51.5 51.2854 53.4312 49.3541 55.7916 49.3541 58.1521 49.3541 60.0833 51.2854 60.0833 53.6458ZM75.1041 53.6458C75.1041 56.0062 73.1729 57.9375 70.8125 57.9375 68.452 57.9375 66.5208 56.0062 66.5208 53.6458 66.5208 51.2854 68.452 49.3541 70.8125 49.3541 73.1729 49.3541 75.1041 51.2854 75.1041 53.6458ZM30.0417 70.8125 175.958 70.8125 175.958 156.646 30.0417 156.646 30.0417 70.8125Z" transform="matrix(1 0 0 1.17476 1165 1088)"/><path d="M139.05 99.5666C139.05 108.218 132.037 115.231 123.385 115.231 114.734 115.231 107.721 108.218 107.721 99.5666 107.721 90.9153 114.734 83.902 123.385 83.902 132.037 83.902 139.05 90.9153 139.05 99.5666Z" transform="matrix(1 0 0 1.17476 1165 1088)"/><path d="M154.5 150.208 154.5 134.544C154.5 132.183 153.212 129.823 151.281 128.321 146.775 125.102 141.625 122.527 136.046 121.025 131.969 119.737 127.462 119.094 123.171 119.094 118.879 119.094 114.587 119.737 110.296 121.025 104.717 122.527 99.5666 124.887 95.0604 128.321 93.1291 129.823 92.0562 132.183 91.8416 134.544L91.8416 150.208 154.5 150.208Z" transform="matrix(1 0 0 1.17476 1165 1088)"/><path d="M94.4166 81.7562C95.7041 81.7562 96.777 82.8291 96.5625 84.1166L96.5625 111.583 96.5625 111.583C96.5625 112.871 95.4895 113.944 94.4166 113.944L87.55 113.944 87.55 123.171 78.5375 113.729 53.8604 113.729 53.8604 113.729C52.5729 113.729 51.5 112.656 51.7146 111.369L51.7146 84.1166 51.7146 84.1166C51.7146 82.8291 52.7875 81.7562 54.075 81.7562L94.4166 81.7562 94.4166 81.7562Z" transform="matrix(1 0 0 1.17476 1165 1088)"/></g></g></g><g><g><g><path d="M3076 1257.12C3076 1272.31 3063.69 1284.62 3048.5 1284.62 3033.31 1284.62 3021 1272.31 3021 1257.12 3021 1241.94 3033.31 1229.62 3048.5 1229.62 3063.69 1229.62 3076 1241.94 3076 1257.12Z"/><path d="M3241 1257.12C3241 1272.31 3228.69 1284.62 3213.5 1284.62 3198.31 1284.62 3186 1272.31 3186 1257.12 3186 1241.94 3198.31 1229.62 3213.5 1229.62 3228.69 1229.62 3241 1241.94 3241 1257.12Z"/><path d="M3100.06 1188.38 3100.06 1147.12 3147.16 1147.12C3150.94 1147.12 3154.37 1148.5 3156.78 1151.25L3193.91 1188.38 3100.06 1188.38ZM3086.31 1188.38 2999.34 1188.38 3036.47 1151.25C3039.22 1148.5 3042.66 1147.12 3046.09 1147.12L3086.31 1147.12 3086.31 1188.38ZM3247.87 1188.38 3219.34 1188.38C3215.56 1188.38 3212.12 1187 3209.72 1184.25L3166.41 1141.28C3161.25 1136.12 3154.37 1133.38 3146.81 1133.38L3046.09 1133.38C3038.87 1133.38 3031.66 1136.12 3026.5 1141.28L2983.87 1184.25C2981.12 1187 2979.75 1190.44 2979.75 1194.22L2979.75 1229.62C2979.75 1244.75 2992.12 1257.12 3007.25 1257.12L3010.69 1257.12C3010.69 1236.16 3027.53 1219.31 3048.5 1219.31 3069.47 1219.31 3086.31 1236.16 3086.31 1257.12L3175.69 1257.12C3175.69 1236.16 3192.53 1219.31 3213.5 1219.31 3234.47 1219.31 3251.31 1236.16 3251.31 1257.12L3268.5 1257.12C3276.06 1257.12 3282.25 1250.94 3282.25 1243.38L3282.25 1222.75C3282.25 1203.84 3266.78 1188.38 3247.87 1188.38Z"/></g></g></g><text font-family="Arial,Arial_MSFontService,sans-serif" font-weight="400" font-size="83" transform="matrix(1 0 0 1 487.934 967)">Date: 17</text><text font-family="Arial,Arial_MSFontService,sans-serif" font-weight="400" font-size="55" transform="matrix(1 0 0 1 799.601 942)">th</text><text fill="#C00000" font-family="Arial,Arial_MSFontService,sans-serif" font-weight="400" font-size="83" transform="matrix(1 0 0 1 868.351 967)">Jan</text><path d="M2526.5 1218.5C2526.5 1202.48 2539.71 1189.5 2556 1189.5 2572.29 1189.5 2585.5 1202.48 2585.5 1218.5 2585.5 1234.52 2572.29 1247.5 2556 1247.5 2539.71 1247.5 2526.5 1234.52 2526.5 1218.5Z" stroke="#000000" stroke-width="6.875" stroke-miterlimit="8" fill-rule="evenodd"/><path d="M2399.5 1218.5C2399.5 1202.48 2412.71 1189.5 2429 1189.5 2445.29 1189.5 2458.5 1202.48 2458.5 1218.5 2458.5 1234.52 2445.29 1247.5 2429 1247.5 2412.71 1247.5 2399.5 1234.52 2399.5 1218.5Z" stroke="#000000" stroke-width="6.875" stroke-miterlimit="8" fill-rule="evenodd"/><path d="M2272.5 1220.5C2272.5 1204.48 2285.71 1191.5 2302 1191.5 2318.29 1191.5 2331.5 1204.48 2331.5 1220.5 2331.5 1236.52 2318.29 1249.5 2302 1249.5 2285.71 1249.5 2272.5 1236.52 2272.5 1220.5Z" stroke="#000000" stroke-width="6.875" stroke-miterlimit="8" fill-rule="evenodd"/><path d="M1767.5 1688.06 1788.13 1688.06 1788.13 1694.94 1767.5 1694.94ZM1795 1688.06 1815.63 1688.06 1815.63 1694.94 1795 1694.94ZM1822.5 1688.06 1843.13 1688.06 1843.13 1694.94 1822.5 1694.94ZM1850 1688.06 1870.63 1688.06 1870.63 1694.94 1850 1694.94ZM1877.5 1688.06 1898.13 1688.06 1898.13 1694.94 1877.5 1694.94ZM1905 1688.06 1925.63 1688.06 1925.63 1694.94 1905 1694.94ZM1932.5 1688.06 1953.13 1688.06 1953.13 1694.94 1932.5 1694.94ZM1960 1688.06 1980.63 1688.06 1980.63 1694.94 1960 1694.94ZM1987.5 1688.06 2008.13 1688.06 2008.13 1694.94 1987.5 1694.94ZM2015 1688.06 2035.63 1688.06 2035.63 1694.94 2015 1694.94ZM2042.5 1688.06 2063.12 1688.06 2063.12 1694.94 2042.5 1694.94ZM2070 1688.06 2090.62 1688.06 2090.62 1694.94 2070 1694.94ZM2097.5 1688.06 2118.12 1688.06 2118.12 1694.94 2097.5 1694.94ZM2125 1688.06 2145.62 1688.06 2145.62 1694.94 2125 1694.94ZM2152.5 1688.06 2173.12 1688.06 2173.12 1694.94 2152.5 1694.94ZM2180 1688.06 2200.62 1688.06 2200.62 1694.94 2180 1694.94ZM2207.5 1688.06 2228.12 1688.06 2228.12 1694.94 2207.5 1694.94ZM2235 1688.06 2255.62 1688.06 2255.62 1694.94 2235 1694.94ZM2262.5 1688.06 2283.12 1688.06 2283.12 1694.94 2262.5 1694.94ZM2290 1688.06 2310.62 1688.06 2310.62 1694.94 2290 1694.94ZM2317.5 1688.06 2338.12 1688.06 2338.12 1694.94 2317.5 1694.94ZM2345 1688.06 2365.62 1688.06 2365.62 1694.94 2345 1694.94ZM2372.5 1688.06 2393.12 1688.06 2393.12 1694.94 2372.5 1694.94ZM2400 1688.06 2420.62 1688.06 2420.62 1694.94 2400 1694.94ZM2427.5 1688.06 2448.12 1688.06 2448.12 1694.94 2427.5 1694.94ZM2455 1688.06 2475.62 1688.06 2475.62 1694.94 2455 1694.94ZM2482.5 1688.06 2503.12 1688.06 2503.12 1694.94 2482.5 1694.94ZM2510 1688.06 2530.62 1688.06 2530.62 1694.94 2510 1694.94ZM2537.5 1688.06 2558.12 1688.06 2558.12 1694.94 2537.5 1694.94ZM2565 1688.06 2585.62 1688.06 2585.62 1694.94 2565 1694.94ZM2592.5 1688.06 2613.12 1688.06 2613.12 1694.94 2592.5 1694.94ZM2620 1688.06 2640.62 1688.06 2640.62 1694.94 2620 1694.94ZM2647.5 1688.06 2668.12 1688.06 2668.12 1694.94 2647.5 1694.94ZM2675 1688.06 2695.62 1688.06 2695.62 1694.94 2675 1694.94ZM2702.5 1688.06 2723.12 1688.06 2723.12 1694.94 2702.5 1694.94ZM2730 1688.06 2750.62 1688.06 2750.62 1694.94 2730 1694.94ZM2757.5 1688.06 2778.12 1688.06 2778.12 1694.94 2757.5 1694.94ZM2785 1688.06 2805.62 1688.06 2805.62 1694.94 2785 1694.94ZM2812.5 1688.06 2817.71 1688.06 2817.71 1694.94 2812.5 1694.94ZM2813.13 1677.75 2840.63 1691.5 2813.13 1705.25Z" fill="#156082"/><text font-family="Arial,Arial_MSFontService,sans-serif" font-weight="400" font-size="83" transform="matrix(1 0 0 1 239.57 1234)">Features</text><text font-family="Arial,Arial_MSFontService,sans-serif" font-weight="400" font-size="83" transform="matrix(1 0 0 1 564.986 1234)">:</text></g></svg>